Coordinates
version=1
nRows=17
nColumns=36
inDegrees=yes

Units are S.I. units (second, meters, Newtons, ...)
If the header above contains a line with 'inDegrees', this indicates whether rotational values are in degrees (yes) or radians (no).

endheader
time	pelvis_tilt	pelvis_list	pelvis_rotation	pelvis_tx	pelvis_ty	pelvis_tz	hip_flexion_r	hip_adduction_r	hip_rotation_r	knee_angle_r	knee_angle_r_beta	ankle_angle_r	subtalar_angle_r	mtp_angle_r	hip_flexion_l	hip_adduction_l	hip_rotation_l	knee_angle_l	knee_angle_l_beta	ankle_angle_l	subtalar_angle_l	mtp_angle_l	lumbar_extension	lumbar_bending	lumbar_rotation	arm_flex_r	arm_add_r	arm_rot_r	elbow_flex_r	pro_sup_r	arm_flex_l	arm_add_l	arm_rot_l	elbow_flex_l	pro_sup_l
      0.00000000	      3.72179270	      0.44270625	     -3.92155209	      0.13416842	      1.24340188	      0.00079773	     -2.68080799	      0.51377592	      2.95115733	     10.67519270	      0.18631726	      8.21488351	     -7.32586958	     -6.50177128	     -1.98271933	     -0.66271422	      1.57490288	     12.75856608	      0.22267899	      9.42299575	     -8.13043680	     -6.50177128	    -13.50652844	      3.79328198	     -4.24356498	      3.29254148	     -9.31540163	     21.38146224	     23.39606694	     68.54978243	      2.27632391	     -5.80293449	     23.66955116	     21.15495706	     64.28391030
      0.01666670	      5.60974960	      0.62906101	     -4.06996647	      0.13113435	      1.24765016	      0.00169507	     -4.96250184	      0.55823419	      3.64374220	      9.87071929	      0.17227655	      9.70430350	     -6.55168981	     -6.94318018	     -4.51082961	      0.02791159	      2.68082461	     11.81463034	      0.20620420	      8.11375676	     -8.56452575	     -6.94318018	    -16.21091311	      4.07424232	     -3.81308500	      4.06714453	     -8.98004522	     18.24318279	     23.12311561	     72.54593875	      2.62845390	     -5.12965385	     21.59434588	     21.54594176	     67.67402439
      0.03333330	      5.44218992	      1.24317685	     -4.33331739	      0.12904758	      1.24354059	      0.00301316	     -5.02819629	      0.00220019	      2.71429797	      8.67227392	      0.15135973	      9.27084747	     -6.35212279	     -7.06817970	     -4.22972010	      0.64769597	      2.67430702	     11.84138212	      0.20667111	      8.13744173	     -8.96717670	     -7.06817970	    -16.30757731	      3.28558654	     -3.01207278	      3.82186062	     -8.56458335	     15.21322643	     24.07161763	     74.35714365	      3.04759179	     -5.06086303	     21.90042362	     20.92988224	     69.27927887
      0.05000000	      6.46309841	      1.47145935	     -4.14961951	      0.13007206	      1.24518009	      0.00334984	     -6.54860173	     -0.42905258	      3.04523152	      7.69962887	      0.13438387	      9.29920650	     -5.98535090	     -7.07947392	     -5.68969532	      1.04855882	      3.20765861	     10.95149304	      0.19113961	      7.81742345	     -9.64649069	     -7.07947392	    -17.53102579	      2.96508835	     -2.82659614	      4.16766374	     -8.33606623	     14.78896531	     24.04876226	     74.46653438	      3.40376237	     -4.76394575	     21.51277524	     19.93908708	     69.12273471
      0.06666670	      7.23759649	      1.58756135	     -4.10569975	      0.12940363	      1.24508766	      0.00484126	     -7.95562209	     -0.70625047	      2.67414286	      6.42612492	      0.11215704	      9.27960751	     -5.21092900	     -7.12173481	     -6.83654549	      1.21153551	      3.45523422	     10.20191024	      0.17805692	      7.51216080	     -9.90208729	     -7.12173481	    -18.70107864	      2.79691545	     -2.40182536	      3.95377681	     -8.13025507	     12.69649455	     25.43571821	     76.37998555	      3.43095035	     -4.59076939	     20.57136915	     20.11288428	     69.65676204
      0.08333330	      7.58256557	      1.80026715	     -3.90961196	      0.12697728	      1.24656590	      0.00495667	     -8.81589176	     -1.00071710	      2.90084420	      5.47046895	      0.09547769	      9.17291326	     -5.13225643	     -7.27232650	     -7.28941489	      1.42235715	      3.68085122	      9.75426676	      0.17024407	      7.32642700	    -10.08399595	     -7.27232650	    -19.30382235	      2.62421161	     -1.94099029	      3.70200310	     -7.45174865	      6.93780191	     26.23891165	     86.78677856	      3.60448546	     -4.18908427	     16.98939623	     19.98679227	     74.27850659
      0.10000000	      7.56171218	      2.02809958	     -3.61577221	      0.12708096	      1.25138532	      0.00573902	     -9.25833594	     -1.25133034	      3.23310514	      4.84110670	      0.08449325	      9.20814532	     -4.90270391	     -7.27355032	     -7.20104934	      1.58449164	      3.72114105	      9.69822954	      0.16926604	      7.10321085	     -9.97576623	     -7.27355032	    -19.25236774	      2.36023487	     -1.75544633	      3.77059803	     -7.22917855	      6.92012214	     26.30166088	     86.82059159	      3.63001962	     -4.25194393	     16.81383951	     19.90765946	     74.27003285
      0.11666670	      8.21446082	      2.22230030	     -3.42530189	      0.12449387	      1.25019042	      0.00709905	    -10.46364998	     -1.48054609	      3.35307028	      3.79423865	      0.06622196	      8.97311251	     -4.72369334	     -7.31344890	     -7.98763618	      1.73040802	      3.79390349	      9.21444948	      0.16082248	      6.65886296	     -9.87617890	     -7.31344890	    -20.05643525	      2.02870433	     -1.70347809	      3.81395501	     -6.83203890	      5.43859594	     26.94677129	     87.94856867	      3.39619521	     -4.02637828	     12.26794514	     20.56260253	     74.80662547
      0.13333330	      8.25298163	      2.39587764	     -3.16036899	      0.12270735	      1.25323920	      0.00686515	    -10.85508796	     -1.69808128	      3.21338784	      3.14976834	      0.05497383	      8.93618340	     -4.27041863	     -7.40178328	     -7.95122899	      1.81962338	      3.82353954	      9.12348129	      0.15923479	      6.25828360	     -9.76378900	     -7.40178328	    -20.23587709	      1.83585406	     -1.79782055	      4.09279769	     -6.52299871	      4.50524575	     26.90009277	     92.07331294	      3.28060847	     -3.86799151	      8.26795486	     20.95610731	     80.89633762
      0.15000000	      8.17285544	      2.61508579	     -2.95428358	      0.12201172	      1.25472134	      0.00919596	    -11.06255577	     -1.89592330	      3.13577052	      2.60837115	      0.04552466	      8.97335545	     -3.82109028	     -7.41425496	     -7.74417805	      1.89991711	      3.80978703	      9.14868360	      0.15967465	      5.85900122	     -9.55511586	     -7.41425496	    -20.26010244	      1.48242632	     -1.68528894	      4.15862257	     -6.24266398	      4.61701222	     26.88776764	     90.31830852	      3.48306610	     -3.98231638	      7.78460999	     20.81655019	     79.59710219
      0.16666670	      8.16972535	      2.63265410	     -3.07780783	      0.11707338	      1.25869720	      0.01102374	    -11.10549270	     -1.87430101	      3.16348402	      2.20773108	      0.03853218	      8.51346053	     -3.81013148	     -7.41506465	     -7.51861862	      1.78468328	      3.58552106	      9.35150412	      0.16321454	      5.22977930	     -9.28262575	     -7.41506465	    -20.69730267	      1.27164116	     -1.43622683	      4.49869109	     -6.09625846	      4.79081588	     27.03483030	     90.44673411	      3.74281451	     -4.14557248	      7.66013547	     21.07022178	     79.69629730
      0.18333330	      8.36897928	      2.56023125	     -3.30360637	      0.11433208	      1.26026117	      0.01185151	    -11.27970471	     -1.77663113	      3.71871576	      1.85215094	      0.03232613	      7.88542333	     -4.25130515	     -7.43515848	     -7.43736150	      1.59372869	      3.26689494	      9.63797128	      0.16821433	      4.99711140	     -8.67476421	     -7.43515848	    -21.39788260	      1.11203892	     -1.48459769	      5.13205707	     -6.06810585	      6.52424697	     26.98284992	     90.63195854	      3.63542130	     -4.23297533	      5.95855954	     21.78982891	     80.48259304
      0.20000000	      8.63924427	      2.41205665	     -3.47066368	      0.11603898	      1.26092929	      0.01395722	    -11.64110746	     -1.58136257	      3.63523549	      1.56206983	      0.02726326	      7.14956930	     -4.17269987	     -7.47639879	     -7.46760262	      1.30716499	      3.28500809	      9.89889314	      0.17276828	      4.45149309	     -8.26971139	     -7.47639879	    -22.13205580	      1.01770351	     -1.32519028	      5.37505133	     -5.79169173	      5.54646845	     27.39260783	     94.49677179	      3.54404430	     -4.06321122	      2.69183395	     22.50041728	     86.64007502
      0.21666670	      8.37575882	      2.39114866	     -3.61554505	      0.11269172	      1.25969041	      0.01307634	    -11.22120043	     -1.47132088	      3.89998145	      1.47577791	      0.02575718	      6.75482032	     -4.18319170	     -7.48826953	     -6.83144931	      1.11945892	      3.27160048	     10.44393480	      0.18228105	      4.15036623	     -7.85008461	     -7.48826953	    -22.09797557	      0.89581980	     -1.26705240	      5.89547601	     -5.94823370	      7.96593120	     27.33468540	     90.09601633	      3.69431674	     -4.23243255	      3.83740742	     22.52414575	     82.26438142
      0.23333330	      8.52155327	      2.31512391	     -3.72377713	      0.11307333	      1.26056805	      0.01274798	    -11.40829773	     -1.42185337	      3.58922154	      1.33730259	      0.02334033	      6.46389373	     -3.95912162	     -7.49631575	     -6.67251962	      0.91172211	      3.29932890	     10.98211016	      0.19167398	      3.69570552	     -7.18032622	     -7.49631575	    -22.51353525	      0.90860199	     -1.11202189	      6.01364714	     -5.77802875	      6.29785331	     28.08163916	     95.17603265	      3.66011947	     -3.89365180	      0.97702777	     23.18747758	     88.17841716
      0.25000000	      8.41241066	      2.26650740	     -3.90959483	      0.11173461	      1.25639131	      0.01459527	    -11.22977241	     -1.31792862	      3.52178228	      1.36555178	      0.02383337	      6.41037433	     -4.35216249	     -7.49883823	     -6.12574764	      0.70243495	      3.31218232	     11.73659233	      0.20484218	      3.68492071	     -6.89091487	     -7.49883823	    -22.53970958	      0.83687398	     -0.91250715	      6.17270647	     -5.73746380	      6.39904746	     28.59051707	     95.66037967	      3.62777103	     -3.83199243	      0.26772095	     23.74711021	     88.68266611
      0.26666670	      8.33661020	      2.24920428	     -3.91139028	      0.11094457	      1.25785572	      0.01523722	    -11.05994127	     -1.19775592	      3.14481738	      1.51174250	      0.02638488	      6.43891576	     -4.43839772	     -7.49966756	     -5.57914621	      0.52986481	      3.72557183	     12.39780664	      0.21638255	      3.40964704	     -6.61880587	     -7.49966756	    -22.57753561	      0.80085238	     -0.86410184	      6.37519649	     -5.72329688	      6.86275912	     28.92005830	     95.88857379	      3.68774944	     -3.80293908	      0.00315384	     24.13793591	     88.96683926
